<svg version="1.1" id="Layer_1" xmlns="http://www.w3.org/2000/svg" xmlns:xlink="http://www.w3.org/1999/xlink" x="0px" y="0px"
	 width="100%" viewBox="0 0 496 496" enable-background="new 0 0 496 496" xml:space="preserve">
<path fill="#000000" opacity="1.000000" stroke="none" 
	d="
M201.357620,414.753113 
	C186.835709,411.442230 175.709152,402.257294 163.282364,395.664154 
	C157.555206,392.625549 151.998260,389.319183 145.889328,386.968323 
	C141.238510,385.178558 138.149414,381.300507 136.117722,376.754211 
	C135.510269,375.394928 135.352768,373.778473 134.014648,372.888458 
	C127.896843,368.819336 124.321297,362.417175 119.461830,357.197693 
	C109.702751,346.715607 100.583435,335.077820 96.907974,321.638733 
	C92.003975,303.707642 82.030441,286.824707 83.607414,267.290131 
	C83.647385,266.794983 83.644463,266.281586 83.562263,265.793457 
	C77.157410,227.757660 88.845329,193.914337 107.945938,161.918518 
	C117.759064,145.480331 131.844315,132.519043 144.616150,118.509727 
	C145.172852,117.899094 145.794510,117.262466 146.517426,116.900978 
	C168.658417,105.829330 189.038879,91.198860 214.462173,86.998367 
	C231.035660,84.260063 247.406845,80.764999 264.296997,81.096016 
	C265.562988,81.120834 266.547394,80.720306 267.507935,80.003906 
	C270.217712,77.982895 272.906036,78.894997 275.501312,80.211411 
	C285.194000,85.127884 295.275055,89.134003 305.702820,92.080956 
	C321.366913,96.507713 336.387329,102.004433 348.763916,113.135529 
	C352.410889,116.415489 356.757080,117.846565 361.507751,115.554680 
	C369.476929,128.351654 379.267273,139.441711 388.036591,151.287399 
	C390.842041,155.077011 393.113922,159.085190 395.234741,163.234344 
	C395.840546,164.419540 396.142426,165.929504 397.063019,166.757690 
	C404.600555,173.538467 406.702271,183.043793 410.419647,191.883469 
	C418.069885,210.075195 420.399139,229.304138 421.875702,248.557297 
	C422.667267,258.878754 421.130890,269.514496 419.581268,279.848938 
	C417.062164,296.649078 409.418854,311.728210 402.702850,327.166016 
	C394.025513,347.112274 379.841461,362.527618 364.547211,377.252533 
	C361.308807,380.370361 357.973541,383.387604 354.736816,386.507172 
	C351.305450,389.814392 347.311554,392.256775 342.769409,393.501709 
	C336.353302,395.260284 331.226501,399.185944 325.733215,402.613373 
	C312.692993,410.749573 298.325409,415.140533 283.133942,417.210510 
	C272.608398,418.644684 262.238708,420.968353 251.461365,420.486053 
	C244.281921,420.164795 237.084061,419.995636 230.192215,418.075470 
	C223.873795,416.315033 217.633667,419.237000 211.349533,417.461792 
	C208.171646,416.564056 204.851776,416.094635 201.357620,414.753113 
M376.897644,358.400787 
	C399.931854,331.465088 412.783752,300.284637 415.693848,265.004517 
	C416.596893,254.056686 418.269440,242.902466 416.245239,232.137268 
	C413.494781,217.509445 410.470612,202.943192 404.418030,188.981720 
	C394.635803,166.417053 381.146729,146.435623 363.478119,129.842529 
	C346.642456,114.031654 326.578613,103.008499 304.263885,95.596970 
	C261.132629,81.271530 219.474930,85.012657 178.946991,103.843613 
	C148.996292,117.759933 126.285637,140.035309 109.012787,168.153534 
	C102.559349,178.658966 98.610634,190.067047 94.678955,201.524246 
	C90.728539,213.036102 88.105942,224.889053 87.286469,237.105881 
	C85.449020,264.498749 89.844292,290.736603 100.285133,316.205658 
	C109.798096,339.411316 124.781052,358.339600 142.938187,375.167694 
	C154.531250,385.912231 167.259491,395.099121 181.799683,401.153412 
	C208.517029,412.278107 236.297226,418.239624 265.484131,415.705811 
	C280.325531,414.417358 295.071930,411.766510 308.772522,406.314728 
	C334.899750,395.918152 358.160797,380.840027 376.897644,358.400787 
z"/>
<path fill="#000000" opacity="1.000000" stroke="none" 
	d="
M320.013428,266.347595 
	C318.151093,266.197479 316.586121,266.662079 315.617432,265.690430 
	C318.799500,256.352112 319.345703,247.317215 315.522736,238.132980 
	C320.148834,235.762665 322.901794,236.345947 326.141968,240.385757 
	C330.269348,245.531693 334.515167,250.582642 339.212585,255.463470 
	C338.631866,249.629074 342.420105,243.201599 335.565094,238.307602 
	C339.538055,236.340225 342.832367,236.483398 346.823853,238.109116 
	C342.053528,242.250504 343.517334,247.421982 343.369720,252.249756 
	C343.268127,255.572037 343.413574,258.901947 343.307831,262.223999 
	C343.259094,263.755341 343.991211,265.787292 341.711243,266.419128 
	C339.862518,266.931488 338.559845,265.862030 337.438171,264.507202 
	C333.833649,260.153473 330.217896,255.808945 326.589325,251.475281 
	C325.445923,250.109741 324.248352,248.789612 322.051147,246.277435 
	C322.860992,253.486969 320.181396,259.622711 324.808289,265.004364 
	C323.828033,267.005768 321.941895,266.065063 320.013428,266.347595 
z"/>
<path fill="#000000" opacity="1.000000" stroke="none" 
	d="
M138.422882,247.629105 
	C137.463989,249.363831 136.587189,250.329056 138.402390,252.129150 
	C143.793274,257.475159 141.444122,264.604889 133.714996,265.989441 
	C128.380966,266.944946 122.868950,266.557770 117.377861,266.015228 
	C120.833443,256.507080 120.821152,247.405273 117.500015,237.620834 
	C123.449753,236.771805 129.781662,235.792862 135.806412,238.808685 
	C139.218124,240.516479 140.127747,243.661575 138.422882,247.629105 
M130.132080,253.357727 
	C124.508148,252.952713 126.467491,257.179321 126.310425,259.879944 
	C126.140739,262.797607 128.395538,262.886993 130.455841,262.574066 
	C133.612595,262.094604 134.988525,260.069489 134.600632,256.945007 
	C134.339142,254.838623 132.754807,253.960785 130.132080,253.357727 
M126.607719,242.344162 
	C126.478729,243.328094 126.203270,244.319366 126.252167,245.294388 
	C126.345154,247.148438 125.642578,249.837509 128.931183,249.403076 
	C131.553909,249.056580 133.228394,247.350754 132.718842,244.514297 
	C132.133484,241.255890 129.951126,240.687851 126.607719,242.344162 
z"/>
<path fill="#000000" opacity="1.000000" stroke="none" 
	d="
M267.866211,251.481216 
	C269.831573,250.311035 271.820587,249.810425 272.856781,247.824738 
	C273.824982,245.969391 273.688232,244.282150 272.429871,242.708542 
	C271.025085,240.951874 268.955078,240.610809 266.986084,241.007477 
	C264.688019,241.470444 265.392761,243.628555 265.361481,245.167877 
	C265.273560,249.495438 265.498352,253.834793 265.270874,258.152191 
	C265.116791,261.076691 266.286133,263.182861 269.006836,265.264435 
	C264.404449,267.014435 260.429108,266.327698 255.644135,265.935638 
	C259.739197,261.652283 259.038025,256.820709 258.782013,252.199905 
	C258.524902,247.559570 260.516693,242.462143 256.353790,238.510056 
	C260.843445,235.796600 273.506744,236.421631 277.225616,239.467361 
	C280.739685,242.345383 280.615692,245.725082 276.599426,251.996048 
	C280.197235,255.810638 280.329193,261.638245 284.581116,265.452942 
	C280.558533,267.592773 277.263214,266.927826 275.901489,263.261566 
	C274.149109,258.543518 271.424011,254.838638 267.866211,251.481216 
z"/>
<path fill="#000000" opacity="1.000000" stroke="none" 
	d="
M156.926727,256.355042 
	C150.453415,256.775116 149.066833,259.725677 152.615433,265.399872 
	C149.125931,266.964752 145.773270,266.555939 141.862564,265.624451 
	C148.361130,258.413696 150.055313,249.468628 153.692429,241.440826 
	C154.691650,239.235291 155.141846,236.529373 158.575363,236.720535 
	C161.809372,236.900574 161.842316,239.614792 162.623825,241.643936 
	C164.293655,245.979462 165.814529,250.373260 167.348328,254.760010 
	C168.654968,258.497101 170.217209,262.087860 173.475342,265.353149 
	C168.959946,266.948395 165.001434,266.427887 160.936325,265.903564 
	C163.613190,258.912781 162.903152,257.129974 156.926727,256.355042 
M155.924881,252.553650 
	C160.180099,251.898438 160.310791,250.851624 156.602127,244.960754 
	C156.123337,247.619324 153.395767,249.475723 155.924881,252.553650 
z"/>
<path fill="#000000" opacity="1.000000" stroke="none" 
	d="
M252.951202,263.374725 
	C254.553955,265.291168 253.747452,266.154694 252.047394,266.222717 
	C248.771454,266.353821 245.486588,266.260956 241.506546,266.260956 
	C243.344910,262.680847 245.201508,259.213318 241.589294,257.067596 
	C239.149033,255.618057 235.579514,255.301941 233.187454,257.565277 
	C230.699722,259.919159 231.238907,262.834930 234.167068,265.540863 
	C230.081497,266.653046 226.794739,266.627655 222.892487,265.575348 
	C229.485977,258.330261 231.056824,249.160141 234.843201,241.018860 
	C235.818405,238.921997 236.413559,236.559311 239.549225,236.718689 
	C242.507538,236.869034 242.600098,239.248596 243.441925,241.166763 
	C246.630920,248.432968 247.788406,256.553284 252.951202,263.374725 
M238.315170,252.607254 
	C242.833740,249.950378 238.376297,247.723618 238.396301,244.558365 
	C234.988022,250.444534 234.980133,250.620209 238.315170,252.607254 
z"/>
<path fill="#000000" opacity="1.000000" stroke="none" 
	d="
M358.504578,259.392578 
	C364.579193,265.290009 369.527069,262.253906 374.195679,257.476532 
	C375.448029,262.119873 374.203705,264.581360 370.405090,265.877045 
	C363.215210,268.329468 355.369934,266.223846 351.478271,260.797272 
	C347.737885,255.581619 347.941467,247.687729 351.948486,242.564117 
	C356.202332,237.125015 364.749023,234.997574 371.492096,237.736282 
	C375.689270,239.440964 374.169800,242.677582 373.837799,245.578247 
	C371.750366,246.334427 371.325439,244.763199 370.535675,243.804459 
	C368.266754,241.050140 365.389557,240.343750 362.023438,241.244202 
	C358.529297,242.178940 356.766815,244.654816 356.328796,248.051132 
	C355.832977,251.895599 355.874115,255.719757 358.504578,259.392578 
z"/>
<path fill="#000000" opacity="1.000000" stroke="none" 
	d="
M218.681061,236.795456 
	C224.165100,236.796310 223.726685,240.199753 223.826401,243.738708 
	C220.612869,243.929550 219.158707,240.538406 216.166061,241.240753 
	C214.478928,241.636719 212.624847,241.565689 212.569321,243.775879 
	C212.427734,249.411392 212.077698,255.048676 212.964233,260.682617 
	C213.281158,262.696655 215.349792,263.337677 215.939545,265.573822 
	C211.715088,266.862579 207.638138,266.539185 202.869965,265.709991 
	C209.247131,258.895386 206.413757,251.008652 206.326172,243.730637 
	C206.276428,239.596695 202.122742,241.360825 199.569122,241.898666 
	C198.230484,242.180618 197.652771,244.290176 195.809021,243.821899 
	C194.907944,238.768158 196.233795,236.860718 200.772858,236.822876 
	C206.588760,236.774414 212.405350,236.805756 218.681061,236.795456 
z"/>
<path fill="#000000" opacity="1.000000" stroke="none" 
	d="
M177.278732,261.887451 
	C177.337189,253.745102 179.703445,245.740875 175.137070,237.798309 
	C179.043671,236.435242 182.958694,236.874222 187.823608,237.469727 
	C182.347534,243.583435 184.815689,250.355972 184.395355,256.712677 
	C184.266281,258.664795 183.249466,261.545197 186.021652,262.370148 
	C188.694962,263.165649 191.617325,263.018585 194.143112,261.202515 
	C195.428421,260.278351 195.795303,258.170959 197.875107,258.277374 
	C200.027649,263.005188 198.387482,266.244537 193.648575,266.335205 
	C187.570953,266.451477 181.489441,266.363434 175.725052,266.363434 
	C174.762482,263.826721 176.671844,263.420624 177.278732,261.887451 
z"/>
<path fill="#000000" opacity="1.000000" stroke="none" 
	d="
M308.332764,246.357651 
	C308.332367,249.962845 308.450348,253.118835 308.296814,256.261566 
	C308.129150,259.694153 308.352814,262.875763 311.914673,264.804047 
	C308.396820,266.718781 304.489166,266.890930 299.690460,265.570923 
	C303.147705,256.472351 303.103424,247.465652 299.640167,237.606476 
	C303.067169,236.253464 307.062592,237.005310 311.927795,237.413239 
	C309.818237,240.526154 307.475769,242.659561 308.332764,246.357651 
z"/>
<path fill="#000000" opacity="1.000000" stroke="none" 
	d="
M378.030396,262.239746 
	C379.561523,259.712219 381.088989,258.141876 383.507294,260.845917 
	C385.039886,262.559601 384.291321,263.961914 382.833710,265.021423 
	C379.791534,267.232727 378.912994,264.728973 378.030396,262.239746 
z"/>
</svg>